<?xml version="1.0" standalone="no"?><!DOCTYPE svg PUBLIC "-//W3C//DTD SVG 1.1//EN" "http://www.w3.org/Graphics/SVG/1.1/DTD/svg11.dtd"><svg t="1494254562025" class="icon" style="" viewBox="0 0 1024 1024" version="1.1" xmlns="http://www.w3.org/2000/svg" p-id="3136" xmlns:xlink="http://www.w3.org/1999/xlink" width="200" height="200"><defs><style type="text/css"></style></defs><path d="M562.176 610.304c8.192-9.216 8.192-24.576-1.024-33.792l-124.928-133.12 0 0-39.936-39.936c-2.048 1.024-3.072 3.072-5.12 5.12L132.096 721.92 132.096 187.392c2.048-14.336 13.312-23.552 26.624-23.552L512 163.84l57.344-65.536L123.904 98.304c-31.744 0-57.344 25.6-57.344 58.368l0 671.744c0 31.744 25.6 58.368 57.344 58.368l198.656 0L562.176 610.304z" p-id="3137"></path><path d="M746.496 327.68m-98.304 0a9.6 9.6 0 1 0 196.608 0 9.6 9.6 0 1 0-196.608 0Z" p-id="3138"></path><path d="M927.744 98.304 736.256 98.304c-1.024 2.048-2.048 5.12-4.096 6.144l-51.2 59.392 211.968 0c14.336 0 25.6 10.24 26.624 24.576l1.024 533.504L715.776 502.784c-6.144-7.168-15.36-12.288-26.624-12.288-10.24 0-17.408 5.12-26.624 11.264l-9.216 7.168 60.416 64.512c9.216 9.216 9.216 23.552 1.024 33.792L473.088 884.736l454.656 0c31.744 0 57.344-25.6 57.344-58.368L985.088 155.648C985.088 123.904 959.488 98.304 927.744 98.304z" p-id="3139"></path></svg>